<svg xmlns="http://www.w3.org/2000/svg" viewBox="0 0 455.33 358.45"><path d="M171.22,284.69a105.76,105.76,0,0,1,0-210.91q4-.3,8-.3H307.5l6.82-13a181.55,181.55,0,0,0-32.16-28.8L255.29,49.92a150.91,150.91,0,0,0-17.16-8.71L236.86,8.83A178.73,178.73,0,0,0,194.59,0L180.46,29.18c-4.73,0-9.46.15-14.27.56-1.67.14-3.3.35-4.93.55L144,2.83a179.62,179.62,0,0,0-41,13.43l2.36,32.4A144.74,144.74,0,0,0,89.17,59.2L60.46,44.11a180,180,0,0,0-28.77,32.2l18.23,26.85a146.88,146.88,0,0,0-8.74,17.14L8.79,121.57A178.54,178.54,0,0,0,0,163.86L29.17,178c0,4.73.12,9.48.54,14.27.14,1.65.35,3.27.57,4.92L2.82,214.5a179.78,179.78,0,0,0,13.43,41l32.39-2.35a151.64,151.64,0,0,0,10.53,16.11L44.09,298a179,179,0,0,0,32.18,28.8l26.86-18.21a145.35,145.35,0,0,0,17.15,8.72l1.28,32.39a178.22,178.22,0,0,0,42.25,8.8L178,329.28c4.71,0,9.48-.13,14.27-.55,1.65-.13,3.28-.36,4.89-.56l17.33,27.48a180,180,0,0,0,41-13.42l-2.34-32.41a159.12,159.12,0,0,0,16.1-10.54L298,314.36A181,181,0,0,0,324.71,285H179.22Q175.19,285,171.22,284.69Z" style="fill:#1980dd"/><path d="M365.6,89.49H179.23a89.74,89.74,0,1,0,0,179.48H365.6a89.74,89.74,0,0,0,0-179.48Zm0,164.85H272.29V104.12h93.3a75.11,75.11,0,0,1,0,150.22Z" style="fill:#1980dd"/></svg>