<?xml version="1.0" encoding="utf-8"?>
<!-- Generator: Adobe Illustrator 26.0.2, SVG Export Plug-In . SVG Version: 6.00 Build 0)  -->
<svg version="1.1" id="Layer_1" xmlns="http://www.w3.org/2000/svg" xmlns:xlink="http://www.w3.org/1999/xlink" x="0px" y="0px"
	 viewBox="0 0 35.9 33.4" style="enable-background:new 0 0 35.9 33.4;" xml:space="preserve">
<style type="text/css">
	.st0{fill:none;stroke:#000000;stroke-width:2;stroke-linecap:round;stroke-linejoin:round;}
</style>
<path class="st0" d="M29,21.7c0.6,1.9-0.5,4-2.5,4.6c-0.9,0.3-1.8,0.2-2.6-0.2c-1.8-0.9-4-0.1-4.9,1.8c0,0,0,0,0,0
	c-0.2,0.4-0.3,0.8-0.3,1.2c-0.2,2-2,3.5-4,3.3c-1.8-0.2-3.2-1.6-3.3-3.3c-0.2-2-2-3.5-4-3.3c0,0,0,0,0,0c-0.4,0-0.8,0.2-1.2,0.3
	c-1.8,0.9-4,0.1-4.9-1.8c-0.8-1.6-0.2-3.5,1.2-4.6c1.7-1.2,2.1-3.5,0.9-5.1c-0.2-0.4-0.5-0.7-0.9-0.9c-1.7-1.2-2.1-3.5-0.9-5.1
	c1-1.5,2.9-2,4.6-1.2c1.8,0.9,4,0.1,4.9-1.8c0.2-0.4,0.3-0.8,0.3-1.2"/>
<path class="st0" d="M11.4,4.4c0.2-2,2-3.5,4-3.3c1.8,0.2,3.2,1.6,3.3,3.3c0.2,2,1.9,3.5,4,3.3c0.4,0,0.8-0.1,1.2-0.3
	c1.8-0.8,4,0,4.9,1.8c0.4,0.8,0.4,1.7,0.2,2.5"/>
<path class="st0" d="M15,21.7h14.1c2.7,0.4,5.3-1.5,5.7-4.2c0.4-2.7-1.5-5.3-4.2-5.7c-0.5-0.1-0.9-0.1-1.4,0H15
	c-2.7-0.4-5.3,1.5-5.7,4.2c-0.4,2.7,1.5,5.3,4.2,5.7c0.5,0.1,0.9,0.1,1.4,0H15z"/>
<path class="st0" d="M22,11.8v9.9"/>
</svg>
