<svg xmlns="http://www.w3.org/2000/svg" viewBox="0 0 35.12 33.32"><path d="M29,21.65A3.67,3.67,0,0,1,23.91,26,3.68,3.68,0,0,0,19,27.77,3.5,3.5,0,0,0,18.71,29a3.67,3.67,0,0,1-7.31,0,3.68,3.68,0,0,0-4-3.34A3.74,3.74,0,0,0,6.19,26a3.67,3.67,0,0,1-3.66-6.33,3.67,3.67,0,0,0,.9-5.11,3.66,3.66,0,0,0-.9-.9A3.67,3.67,0,0,1,6.19,7.33a3.67,3.67,0,0,0,4.87-1.78,3.51,3.51,0,0,0,.33-1.23" style="fill:none;stroke:#000;stroke-linecap:round;stroke-linejoin:round;stroke-width:2px"/><path d="M11.4,4.32a3.67,3.67,0,0,1,7.31,0,3.66,3.66,0,0,0,5.2,3,3.67,3.67,0,0,1,4.86,1.82A3.71,3.71,0,0,1,29,11.62" style="fill:none;stroke:#000;stroke-linecap:round;stroke-linejoin:round;stroke-width:2px"/><path d="M15,21.61H29.12a5,5,0,1,0,.1-9.9H15a5,5,0,1,0-.1,9.9Z" style="fill:none;stroke:#000;stroke-linecap:round;stroke-linejoin:round;stroke-width:2px"/><path d="M22.05,11.71v9.9" style="fill:none;stroke:#000;stroke-linecap:round;stroke-linejoin:round;stroke-width:2px"/></svg>